<?xml version="1.0" encoding="UTF-8" standalone="no"?>
<!DOCTYPE svg PUBLIC "-//W3C//DTD SVG 1.1//EN" "http://www.w3.org/Graphics/SVG/1.1/DTD/svg11.dtd">
<svg width="100%" height="100%" viewBox="0 0 1440 1800" version="1.1" xmlns="http://www.w3.org/2000/svg" xmlns:xlink="http://www.w3.org/1999/xlink" xml:space="preserve" xmlns:serif="http://www.serif.com/" style="fill-rule:evenodd;clip-rule:evenodd;stroke-linecap:round;stroke-linejoin:round;stroke-miterlimit:1.5;">
    <g transform="matrix(1.33333,0,0,1.33333,0,0)">
        <g id="Vicon-box" serif:id="Vicon box" transform="matrix(1,0,0,1.01208,17.486,49.4247)">
            <g transform="matrix(1.05344,0,0,1.93985,-1.03221,-39.6586)">
                <rect x="19.316" y="42.197" width="624.933" height="291.791" style="fill:rgb(235,235,235);stroke:black;stroke-width:0.63px;"/>
            </g>
            <g transform="matrix(1,0,0,1,-1.10879,-0.00243512)">
                <g transform="matrix(13,0,0,13,155.292,60.9935)">
                </g>
                <text x="36.115px" y="60.994px" style="font-family:'Arial-BoldMT', 'Arial';font-weight:700;font-size:13px;">Mocap caputre tool</text>
            </g>
            <g id="record" transform="matrix(1,0,0,1,-278.968,1.56038)">
                <g transform="matrix(1.35429,0,0,1.21657,-137.09,-39.3288)">
                    <ellipse cx="360.486" cy="178.85" rx="25.844" ry="28.77" style="fill:rgb(235,235,235);stroke:black;stroke-width:0.77px;"/>
                </g>
                <g transform="matrix(1,0,0,1,10.1661,11.5659)">
                    <g transform="matrix(11,0,0,11,369.227,170.56)">
                    </g>
                    <text x="311.761px" y="170.56px" style="font-family:'Arial-BoldMT', 'Arial';font-weight:700;font-size:11px;">record trial</text>
                </g>
            </g>
            <g id="record-raw" transform="matrix(0.979166,0.0263067,-0.02563,0.999654,7.27801,-0.969531)">
                <g transform="matrix(0.76543,-0.0201429,0.0193906,0.740798,-26.526,-47.1839)">
                    <path d="M196.97,304.428L204.97,308.428L196.97,312.428C198.97,310.428 198.97,306.428 196.97,304.428Z"/>
                    <path d="M166.237,308.428L198.57,308.428" style="fill:none;stroke:black;stroke-width:1.33px;"/>
                </g>
            </g>
            <g id="Raw" transform="matrix(0.560026,0,0,0.560026,74.3842,29.209)">
                <g transform="matrix(0.620915,0,0,0.664975,-70.4053,-114.631)">
                    <path d="M725.347,391.488L725.347,749.377C725.347,804.515 676.827,849.279 617.064,849.279L400.498,849.279C340.735,849.279 292.215,804.515 292.215,749.377L292.215,391.488C292.215,336.35 340.735,291.586 400.498,291.586L617.064,291.586C676.827,291.586 725.347,336.35 725.347,391.488Z" style="fill:rgb(235,235,235);stroke:black;stroke-width:2.76px;"/>
                </g>
                <path d="M111.035,146.501L379.974,146.501" style="fill:none;stroke:black;stroke-width:1.77px;"/>
                <g transform="matrix(1.78563,0,0,1.78563,-130.279,-62.274)">
                    <g transform="matrix(14,0,0,14,241.5,107.213)">
                    </g>
                    <text x="180.038px" y="107.213px" style="font-family:'Arial-BoldMT', 'Arial';font-weight:700;font-size:14px;">Raw data</text>
                </g>
                <g transform="matrix(1.79728,0,0,1.78563,-125.971,-63.1221)">
                    <text x="139.274px" y="136.844px" style="font-family:'ArialMT', 'Arial';font-size:11px;">Capured data</text>
                    <text x="139.274px" y="158.204px" style="font-family:'ArialMT', 'Arial';font-size:11px;">• <tspan x="149.21px " y="158.204px ">a</tspan>t least</text>
                    <text x="187.731px" y="158.204px" style="font-family:'Arial-BoldMT', 'Arial';font-weight:700;font-size:11px;">one toe marker</text>
                    <text x="157.274px" y="169.564px" style="font-family:'ArialMT', 'Arial';font-size:11px;">per foot</text>
                    <text x="139.274px" y="190.924px" style="font-family:'ArialMT', 'Arial';font-size:11px;">• <tspan x="149.21px " y="190.924px ">o</tspan>ne</text>
                    <text x="170.619px" y="190.924px" style="font-family:'Arial-BoldMT', 'Arial';font-weight:700;font-size:11px;">heel marker</text>
                    <text x="235.437px" y="190.924px" style="font-family:'ArialMT', 'Arial';font-size:11px;">per foot</text>
                    <text x="139.274px" y="212.283px" style="font-family:'ArialMT', 'Arial';font-size:11px;">• <tspan x="149.21px " y="212.283px ">o</tspan>ne</text>
                    <text x="170.619px" y="212.283px" style="font-family:'Arial-BoldMT', 'Arial';font-weight:700;font-size:11px;">sacral marker</text>
                    <text x="157.274px" y="223.643px" style="font-family:'ArialMT', 'Arial';font-size:11px;">or</text>
                    <text x="170.111px" y="223.643px" style="font-family:'Arial-BoldMT', 'Arial';font-weight:700;font-size:11px;">two posterior</text>
                    <text x="157.274px" y="236.036px" style="font-family:'Arial-BoldMT', 'Arial';font-weight:700;font-size:11px;">pelvis markers</text>
                    <text x="237.662px" y="236.036px" style="font-family:'ArialMT', 'Arial';font-size:12px;">asdf</text>
                    <text x="139.274px" y="258.428px" style="font-family:'ArialMT', 'Arial';font-size:12px;">• <tspan x="149.21px " y="258.428px ">t</tspan>wo</text>
                    <text x="171.217px" y="258.428px" style="font-family:'Arial-BoldMT', 'Arial';font-weight:700;font-size:12px;">anterior</text>
                    <g transform="matrix(12,0,0,12,241.333,270.821)">
                    </g>
                    <text x="157.274px" y="270.821px" style="font-family:'Arial-BoldMT', 'Arial';font-weight:700;font-size:12px;">pelvis markers</text>
                </g>
            </g>
            <g id="raw-process" transform="matrix(0.938183,0.0263067,-0.0245573,0.999654,192.296,-0.983245)">
                <g transform="matrix(0.798867,-0.0210228,0.0193906,0.740798,-224.702,-41.955)">
                    <path d="M436.463,304.409L444.463,308.409L436.463,312.409C438.463,310.409 438.463,306.409 436.463,304.409Z"/>
                    <path d="M407.351,308.409L438.063,308.409" style="fill:none;stroke:black;stroke-width:1.33px;"/>
                </g>
            </g>
            <g id="process" transform="matrix(1,0,0,1,0,1.54667)">
                <g transform="matrix(1.35429,0,0,1.21657,-137.09,-39.3288)">
                    <ellipse cx="360.486" cy="178.85" rx="25.844" ry="28.77" style="fill:rgb(235,235,235);stroke:black;stroke-width:0.77px;"/>
                </g>
                <g transform="matrix(1,0,0,1,10.1661,9.52488)">
                    <g transform="matrix(11,0,0,11,370.148,170.56)">
                    </g>
                    <text x="310.84px" y="170.56px" style="font-family:'Arial-BoldMT', 'Arial';font-weight:700;font-size:11px;">preprocess</text>
                </g>
            </g>
            <g id="process-model" transform="matrix(0.999658,0.0263067,-0.0261664,0.999654,284.023,-0.983245)">
                <g transform="matrix(0.74974,-0.01973,0.0193906,0.740798,-302.657,-39.9036)">
                    <path d="M569.561,304.409L577.561,308.409L569.561,312.409C571.561,310.409 571.561,306.409 569.561,304.409Z"/>
                    <path d="M538.018,308.409L571.161,308.409" style="fill:none;stroke:black;stroke-width:1.33px;"/>
                </g>
            </g>
            <g id="Modelled" transform="matrix(0.560026,0,0,0.560026,353.828,29.1905)">
                <g transform="matrix(0.620915,0,0,0.664975,-70.4053,-114.631)">
                    <path d="M725.347,391.488L725.347,749.377C725.347,804.515 676.827,849.279 617.064,849.279L400.498,849.279C340.735,849.279 292.215,804.515 292.215,749.377L292.215,391.488C292.215,336.35 340.735,291.586 400.498,291.586L617.064,291.586C676.827,291.586 725.347,336.35 725.347,391.488Z" style="fill:rgb(235,235,235);stroke:black;stroke-width:2.76px;"/>
                </g>
                <path d="M111.035,146.501L379.974,146.501" style="fill:none;stroke:black;stroke-width:1.77px;"/>
                <g transform="matrix(1.78563,0,0,1.78563,-130.279,-62.274)">
                    <g transform="matrix(14,0,0,14,257.441,107.213)">
                    </g>
                    <text x="164.097px" y="107.213px" style="font-family:'Arial-BoldMT', 'Arial';font-weight:700;font-size:14px;">Modelled data</text>
                </g>
                <g transform="matrix(1.79728,0,0,1.78563,-125.971,-63.1221)">
                    <text x="139.274px" y="136.844px" style="font-family:'Arial-BoldMT', 'Arial';font-weight:700;font-size:11px;">Preprocessed</text>
                    <text x="215.093px" y="136.844px" style="font-family:'ArialMT', 'Arial';font-size:11px;">data:</text>
                    <text x="139.274px" y="159.564px" style="font-family:'ArialMT', 'Arial';font-size:11px;">• <tspan x="157.274px " y="159.564px ">L</tspan>abelled</text>
                    <g transform="matrix(11,0,0,11,181.122,174.876)">
                    </g>
                    <g transform="matrix(11,0,0,11,184.178,174.876)">
                    </g>
                    <text x="139.274px" y="174.876px" style="font-family:'ArialMT', 'Arial';font-size:11px;">• <tspan x="157.274px " y="174.876px ">G</tspan>ap ﬁlled</text>
                    <text x="139.274px" y="190.188px" style="font-family:'ArialMT', 'Arial';font-size:11px;">• <tspan x="157.274px " y="190.188px ">K</tspan>inematics</text>
                    <text x="139.274px" y="205.5px" style="font-family:'ArialMT', 'Arial';font-size:11px;">• <tspan x="157.274px " y="205.5px ">K</tspan>inetic</text>
                    <g transform="matrix(11,0,0,11,193.954,220.812)">
                    </g>
                    <text x="139.274px" y="220.812px" style="font-family:'ArialMT', 'Arial';font-size:11px;">• <tspan x="157.274px " y="220.812px ">F</tspan>iltered</text>
                </g>
            </g>
            <g id="model-export" transform="matrix(0.999658,0.0263067,-0.0261664,0.999654,465.057,-0.983245)">
                <g transform="matrix(0.74974,-0.01973,0.0193906,0.740798,-483.628,-35.1412)">
                    <path d="M810.941,304.409L818.941,308.409L810.941,312.409C812.941,310.409 812.941,306.409 810.941,304.409Z"/>
                    <path d="M779.397,308.409L812.541,308.409" style="fill:none;stroke:black;stroke-width:1.33px;"/>
                </g>
            </g>
            <g id="export-c3d" serif:id="export c3d" transform="matrix(1,0,0,1,279.943,1.54667)">
                <g transform="matrix(1.35429,0,0,1.21657,-137.09,-39.3288)">
                    <ellipse cx="360.486" cy="178.85" rx="25.844" ry="28.77" style="fill:rgb(235,235,235);stroke:black;stroke-width:0.77px;"/>
                </g>
                <g transform="matrix(1,0,0,1,10.1661,10.5615)">
                    <g transform="matrix(11,0,0,11,368.308,170.56)">
                    </g>
                    <text x="312.68px" y="170.56px" style="font-family:'Arial-BoldMT', 'Arial';font-weight:700;font-size:11px;">export c3d</text>
                </g>
            </g>
            <g id="import-c3d" serif:id="import c3d" transform="matrix(1,-2.74244e-16,0,1,279.943,291.902)">
                <g transform="matrix(1.35429,6.67716e-32,0,1.21657,-137.09,-39.3288)">
                    <ellipse cx="360.486" cy="178.85" rx="25.844" ry="28.77" style="fill:rgb(235,235,235);stroke:black;stroke-width:0.77px;"/>
                </g>
                <g transform="matrix(1,4.93038e-32,0,1,10.1661,10.5615)">
                    <g transform="matrix(11,0,0,11,368.609,170.56)">
                    </g>
                    <text x="312.379px" y="170.56px" style="font-family:'Arial-BoldMT', 'Arial';font-weight:700;font-size:11px;">import c3d</text>
                </g>
            </g>
            <g id="import-data" transform="matrix(0.959631,0.0259928,-0.0252535,0.987726,469.353,291.616)">
                <g transform="matrix(0.781009,-0.0205529,0.01973,0.74974,-516.032,-331.102)">
                    <path d="M787.647,696.343L779.647,700.343L787.647,704.343C785.647,702.343 785.647,698.343 787.647,696.343Z"/>
                    <path d="M786.047,700.343L817.607,700.343" style="fill:none;stroke:black;stroke-width:1.33px;"/>
                </g>
            </g>
            <g id="Event-data" serif:id="Event data" transform="matrix(0.560026,0,0,0.560026,353.828,324.464)">
                <g transform="matrix(0.620915,0,0,0.664975,-70.4053,-114.631)">
                    <path d="M725.347,391.488L725.347,749.377C725.347,804.515 676.827,849.279 617.064,849.279L400.498,849.279C340.735,849.279 292.215,804.515 292.215,749.377L292.215,391.488C292.215,336.35 340.735,291.586 400.498,291.586L617.064,291.586C676.827,291.586 725.347,336.35 725.347,391.488Z" style="fill:rgb(235,235,235);stroke:black;stroke-width:2.76px;"/>
                </g>
                <path d="M111.035,146.501L379.974,146.501" style="fill:none;stroke:black;stroke-width:1.77px;"/>
                <g transform="matrix(1.78563,0,0,1.78563,-130.279,-62.274)">
                    <g transform="matrix(14,0,0,14,246.169,107.213)">
                    </g>
                    <text x="175.369px" y="107.213px" style="font-family:'Arial-BoldMT', 'Arial';font-weight:700;font-size:14px;">Event data</text>
                </g>
                <g transform="matrix(1.79728,0,0,1.78563,-125.971,-63.1221)">
                    <text x="139.274px" y="136.844px" style="font-family:'ArialMT', 'Arial';font-size:11px;">Preprocessed data with</text>
                    <g transform="matrix(11,0,0,11,196.74,148.204)">
                    </g>
                    <text x="139.274px" y="148.204px" style="font-family:'Arial-BoldMT', 'Arial';font-weight:700;font-size:11px;">gait events</text>
                </g>
            </g>
            <g id="data-correct" transform="matrix(0.980615,0.0259928,-0.0258057,0.987726,286.59,291.616)">
                <g transform="matrix(0.764297,-0.0201131,0.01973,0.74974,-318.937,-336.288)">
                    <path d="M546.817,696.343L538.817,700.343L546.817,704.343C544.817,702.343 544.817,698.343 546.817,696.343Z"/>
                    <path d="M545.217,700.343L577.607,700.343" style="fill:none;stroke:black;stroke-width:1.33px;"/>
                </g>
            </g>
            <g id="correct-events" serif:id="correct events" transform="matrix(1,-2.74244e-16,0,1,-0.0130318,291.902)">
                <g transform="matrix(1.35429,1.33543e-31,0,1.21657,-137.09,-39.3288)">
                    <ellipse cx="360.486" cy="178.85" rx="25.844" ry="28.77" style="fill:rgb(235,235,235);stroke:black;stroke-width:0.77px;"/>
                </g>
                <g transform="matrix(1,9.86076e-32,0,1,10.1661,5.98801)">
                    <text x="321.846px" y="170.56px" style="font-family:'Arial-BoldMT', 'Arial';font-weight:700;font-size:11px;">correct</text>
                    <g transform="matrix(11,0,0,11,357.92,181.56)">
                    </g>
                    <text x="323.067px" y="181.56px" style="font-family:'Arial-BoldMT', 'Arial';font-weight:700;font-size:11px;">events</text>
                </g>
            </g>
            <g id="correct-clean" transform="matrix(0.980615,0.0259928,-0.0258057,0.987726,186.59,291.616)">
                <g transform="matrix(0.764297,-0.0201131,0.01973,0.74974,-217.03,-338.97)">
                    <path d="M413.484,696.343L405.484,700.343L413.484,704.343C411.484,702.343 411.484,698.343 413.484,696.343Z"/>
                    <path d="M411.884,700.343L444.274,700.343" style="fill:none;stroke:black;stroke-width:1.33px;"/>
                </g>
            </g>
            <g id="clean-events" serif:id="clean events" transform="matrix(0.560026,0,0,0.560026,74.3842,324.464)">
                <g transform="matrix(0.620915,0,0,0.664975,-70.4053,-114.631)">
                    <path d="M725.347,391.488L725.347,749.377C725.347,804.515 676.827,849.279 617.064,849.279L400.498,849.279C340.735,849.279 292.215,804.515 292.215,749.377L292.215,391.488C292.215,336.35 340.735,291.586 400.498,291.586L617.064,291.586C676.827,291.586 725.347,336.35 725.347,391.488Z" style="fill:rgb(235,235,235);stroke:black;stroke-width:2.76px;"/>
                </g>
                <path d="M111.035,146.501L379.974,146.501" style="fill:none;stroke:black;stroke-width:1.77px;"/>
                <g transform="matrix(1.78563,0,0,1.78563,-130.279,-62.274)">
                    <g transform="matrix(14,0,0,14,262.124,107.213)">
                    </g>
                    <text x="159.414px" y="107.213px" style="font-family:'Arial-BoldMT', 'Arial';font-weight:700;font-size:14px;">Cleaned events</text>
                </g>
                <g transform="matrix(1.79728,0,0,1.78563,-125.971,-63.1221)">
                    <text x="139.274px" y="136.844px" style="font-family:'ArialMT', 'Arial';font-size:11px;">T<tspan x="145.585px 149.249px " y="136.844px 136.844px ">ri</tspan>al with</text>
                    <text x="185.928px" y="136.844px" style="font-family:'Arial-BoldMT', 'Arial';font-weight:700;font-size:11px;">manually cleaned</text>
                    <g transform="matrix(11,0,0,11,174.127,148.204)">
                    </g>
                    <text x="139.274px" y="148.204px" style="font-family:'Arial-BoldMT', 'Arial';font-weight:700;font-size:11px;">events</text>
                </g>
            </g>
            <g id="clean-export" transform="matrix(0.980615,0.0259928,-0.0258057,0.987726,6.58984,291.616)">
                <g transform="matrix(0.764297,-0.0201131,0.01973,0.74974,-33.5991,-343.797)">
                    <path d="M173.484,696.343L165.484,700.343L173.484,704.343C171.484,702.343 171.484,698.343 173.484,696.343Z"/>
                    <path d="M171.884,700.343L204.274,700.343" style="fill:none;stroke:black;stroke-width:1.33px;"/>
                </g>
            </g>
            <g id="export-c3d-2" serif:id="export c3d 2" transform="matrix(1,2.04605e-30,0,1,-278.99,292.052)">
                <g transform="matrix(1.35429,0,0,1.21657,-137.09,-39.3288)">
                    <ellipse cx="360.486" cy="178.85" rx="25.844" ry="28.77" style="fill:rgb(235,235,235);stroke:black;stroke-width:0.77px;"/>
                </g>
                <g transform="matrix(1,0,0,1,10.1661,11.5659)">
                    <g transform="matrix(11,0,0,11,368.308,170.56)">
                    </g>
                    <text x="312.68px" y="170.56px" style="font-family:'Arial-BoldMT', 'Arial';font-weight:700;font-size:11px;">export c3d</text>
                </g>
            </g>
        </g>
        <g id="Event-box" serif:id="Event box" transform="matrix(1,0,0,1,17.486,49.9342)">
            <g id="export-detect" transform="matrix(2.05084,0.0263067,-0.0539696,0.999654,456.846,1.09622)">
                <g transform="matrix(0.36545,-0.0096171,0.01973,0.74974,-232.468,-44.9305)">
                    <path d="M984.523,304.968L992.523,308.968L984.523,312.968C986.523,310.968 986.523,306.968 984.523,304.968Z"/>
                    <path d="M911.397,308.968L986.123,308.968" style="fill:none;stroke:black;stroke-width:1.33px;"/>
                </g>
            </g>
            <g id="detect-events" serif:id="detect events" transform="matrix(1,0,0,1,411.478,2.74667)">
                <g transform="matrix(1.35429,0,0,1.21657,-137.09,-38.5373)">
                    <ellipse cx="360.486" cy="178.85" rx="25.844" ry="28.77" style="fill:rgb(115,236,172);stroke:black;stroke-width:0.78px;"/>
                </g>
                <g transform="matrix(1,0,0,1,10.1661,6.92538)">
                    <text x="324.295px" y="170.56px" style="font-family:'Arial-BoldMT', 'Arial';font-weight:700;font-size:11px;">detect</text>
                    <g transform="matrix(11,0,0,11,357.92,181.56)">
                    </g>
                    <text x="323.067px" y="181.56px" style="font-family:'Arial-BoldMT', 'Arial';font-weight:700;font-size:11px;">events</text>
                </g>
            </g>
            <g id="detect-trial" transform="matrix(1.68484,0.0263067,-0.0443379,0.999654,625.851,1.09622)">
                <g transform="matrix(0.444838,-0.0117063,0.01973,0.74974,-382.917,-40.9714)">
                    <path d="M1145.6,304.968L1153.6,308.968L1145.6,312.968C1147.6,310.968 1147.6,306.968 1145.6,304.968Z"/>
                    <path d="M1086.95,308.968L1147.2,308.968" style="fill:none;stroke:black;stroke-width:1.33px;"/>
                </g>
            </g>
            <g id="detected-trial" serif:id="detected trial" transform="matrix(0.560026,0,0,0.560026,785.162,32.6877)">
                <g transform="matrix(0.620915,0,0,0.664975,-70.4053,-114.631)">
                    <path d="M725.347,392.694L725.347,748.171C725.347,803.974 676.827,849.279 617.064,849.279L400.498,849.279C340.735,849.279 292.215,803.974 292.215,748.171L292.215,392.694C292.215,336.891 340.735,291.586 400.498,291.586L617.064,291.586C676.827,291.586 725.347,336.891 725.347,392.694Z" style="fill:rgb(115,236,172);stroke:black;stroke-width:2.78px;"/>
                </g>
                <path d="M111.035,146.501L379.974,146.501" style="fill:none;stroke:black;stroke-width:1.79px;"/>
                <g transform="matrix(1.78563,0,0,1.78563,-130.279,-62.274)">
                    <g transform="matrix(14,0,0,14,279.241,107.213)">
                    </g>
                    <text x="142.297px" y="107.213px" style="font-family:'Arial-BoldMT', 'Arial';font-weight:700;font-size:14px;">Detected events trial</text>
                </g>
                <g transform="matrix(1.79728,0,0,1.78563,-125.971,-63.1221)">
                    <text x="139.274px" y="136.844px" style="font-family:'ArialMT', 'Arial';font-size:11px;">T<tspan x="145.585px 149.249px " y="136.844px 136.844px ">ri</tspan>al object containing:</text>
                    <text x="139.274px" y="159.564px" style="font-family:'ArialMT', 'Arial';font-size:11px;">• <tspan x="157.274px " y="159.564px ">m</tspan>arkers</text>
                    <text x="139.274px" y="174.924px" style="font-family:'ArialMT', 'Arial';font-size:11px;">• <tspan x="157.274px " y="174.924px ">a</tspan>nalogs</text>
                    <text x="139.274px" y="190.283px" style="font-family:'ArialMT', 'Arial';font-size:11px;">• <tspan x="157.274px " y="190.283px ">a</tspan>nlysis</text>
                    <g transform="matrix(11,0,0,11,192.74,205.643)">
                    </g>
                    <text x="139.274px" y="205.643px" style="font-family:'ArialMT', 'Arial';font-size:11px;">• <tspan x="157.274px " y="205.643px ">e</tspan>vents</text>
                </g>
            </g>
            <g id="detect-toc3d" transform="matrix(-0.0263067,5.25904,-0.999654,-0.138396,1103.35,-251.442)">
                <g transform="matrix(-0.01973,-0.74974,0.142513,-0.00375034,67.7753,1119.44)">
                    <path d="M1257.52,646.687L1253.52,654.687L1249.52,646.687C1251.52,648.687 1255.52,648.687 1257.52,646.687Z"/>
                    <path d="M1253.52,446.655L1253.52,648.287" style="fill:none;stroke:black;stroke-width:1.33px;"/>
                </g>
            </g>
            <g id="write-events-to-c3d" serif:id="write events to c3d" transform="matrix(1,0,0,1,571.538,297.07)">
                <g transform="matrix(1.35429,0,0,1.21657,-137.09,-39.3288)">
                    <ellipse cx="360.486" cy="178.85" rx="25.844" ry="28.77" style="fill:rgb(115,236,172);stroke:black;stroke-width:0.78px;"/>
                </g>
                <g transform="matrix(1,0,0,1,10.1661,6.92538)">
                    <text x="308.702px" y="170.56px" style="font-family:'Arial-BoldMT', 'Arial';font-weight:700;font-size:11px;">write events</text>
                    <g transform="matrix(11,0,0,11,356.691,181.56)">
                    </g>
                    <text x="324.297px" y="181.56px" style="font-family:'Arial-BoldMT', 'Arial';font-weight:700;font-size:11px;">to c3d</text>
                </g>
            </g>
            <g id="toc3d-detected" transform="matrix(1.45591,0.0263067,-0.0383134,0.999654,695.725,294.628)">
                <g transform="matrix(0.514785,-0.013547,0.01973,0.74974,-498.598,-331.56)">
                    <path d="M1156.98,696.343L1148.98,700.343L1156.98,704.343C1154.98,702.343 1154.98,698.343 1156.98,696.343Z"/>
                    <path d="M1155.38,700.343L1206.57,700.343" style="fill:none;stroke:black;stroke-width:1.33px;"/>
                </g>
            </g>
            <g id="detected-events" serif:id="detected events" transform="matrix(0.560026,0,-1.38778e-17,0.560026,632.102,328.373)">
                <g transform="matrix(0.620915,0,-2.04911e-33,0.664975,-70.4053,-119.808)">
                    <path d="M725.347,392.694L725.347,748.171C725.347,803.974 676.827,849.279 617.064,849.279L400.498,849.279C340.735,849.279 292.215,803.974 292.215,748.171L292.215,392.694C292.215,336.891 340.735,291.586 400.498,291.586L617.064,291.586C676.827,291.586 725.347,336.891 725.347,392.694Z" style="fill:rgb(115,236,172);stroke:black;stroke-width:2.78px;"/>
                </g>
                <path d="M111.035,146.501L379.974,146.501" style="fill:none;stroke:black;stroke-width:1.79px;"/>
                <g transform="matrix(1.78563,0,0,1.78563,-130.279,-62.274)">
                    <g transform="matrix(14,0,0,14,264.458,107.213)">
                    </g>
                    <text x="157.079px" y="107.213px" style="font-family:'Arial-BoldMT', 'Arial';font-weight:700;font-size:14px;">Detected events</text>
                </g>
                <g transform="matrix(1.79728,0,0,1.78563,-125.971,-63.1221)">
                    <text x="139.274px" y="136.844px" style="font-family:'Arial-BoldMT', 'Arial';font-weight:700;font-size:11px;">c3d</text>
                    <g transform="matrix(11,0,0,11,161.285,136.844)">
                    </g>
                    <g transform="matrix(11,0,0,11,164.341,136.844)">
                    </g>
                    <text x="161.285px" y="136.844px" style="font-family:'ArialMT', 'Arial';font-size:11px;">ﬁle with detected events</text>
                    <text x="139.274px" y="158.204px" style="font-family:'ArialMT', 'Arial';font-size:11px;">Some events may not be</text>
                    <g transform="matrix(11,0,0,11,234.037,169.564)">
                    </g>
                    <text x="139.274px" y="169.564px" style="font-family:'Arial-BoldMT', 'Arial';font-weight:700;font-size:11px;">correctly detected</text>
                </g>
            </g>
            <g id="detected-import" transform="matrix(0.918648,0.0263067,-0.024175,0.999654,572.75,294.628)">
                <g transform="matrix(0.815852,-0.0214698,0.01973,0.74974,-651.124,-327.546)">
                    <path d="M919.935,696.343L911.935,700.343L919.935,704.343C917.935,702.343 917.935,698.343 919.935,696.343Z"/>
                    <path d="M918.335,700.343L948.274,700.343" style="fill:none;stroke:black;stroke-width:1.33px;"/>
                </g>
            </g>
        </g>
        <g id="segment" transform="matrix(1,0,0,1,17.486,19.9342)">
            <g id="export2-segment" transform="matrix(-0.0263067,7.70841,-0.999654,-0.202853,252.818,-245.307)">
                <g transform="matrix(-0.01973,-0.74974,0.097229,-0.00255866,36.3279,269.442)">
                    <path d="M123.478,1044.92L119.478,1052.92L115.478,1044.92C117.478,1046.92 121.478,1046.92 123.478,1044.92Z"/>
                    <path d="M119.478,747.996L119.478,1046.52" style="fill:none;stroke:black;stroke-width:1.33px;"/>
                </g>
            </g>
            <g id="segment1" serif:id="segment" transform="matrix(1,0,0,1,-278.99,626.146)">
                <g transform="matrix(1.35429,0,0,1.21657,-137.09,-38.5373)">
                    <ellipse cx="360.486" cy="178.85" rx="25.844" ry="28.77" style="fill:rgb(136,211,227);stroke:black;stroke-width:0.78px;"/>
                </g>
                <g transform="matrix(1,0,0,1,10.1661,6.92538)">
                    <text x="317.876px" y="170.56px" style="font-family:'Arial-BoldMT', 'Arial';font-weight:700;font-size:11px;">segment</text>
                    <g transform="matrix(11,0,0,11,350.581,181.56)">
                    </g>
                    <text x="330.407px" y="181.56px" style="font-family:'Arial-BoldMT', 'Arial';font-weight:700;font-size:11px;">trial</text>
                </g>
            </g>
            <g id="segment-segmented" transform="matrix(0.979166,0.0266244,-0.02563,1.01173,7.27801,622.323)">
                <g transform="matrix(0.76543,-0.0201429,0.0193906,0.740798,-41.8785,-633.711)">
                    <path d="M196.97,1096.18L204.97,1100.18L196.97,1104.18C198.97,1102.18 198.97,1098.18 196.97,1096.18Z"/>
                    <path d="M166.237,1100.18L198.57,1100.18" style="fill:none;stroke:black;stroke-width:1.33px;"/>
                </g>
            </g>
            <g id="normalized-trial" serif:id="normalized trial" transform="matrix(0.560026,0,-1.38778e-17,0.560026,74.4173,659.855)">
                <g transform="matrix(0.620915,0,-4.09822e-33,0.664975,-70.4053,-119.808)">
                    <path d="M725.347,392.694L725.347,748.171C725.347,803.974 676.827,849.279 617.064,849.279L400.498,849.279C340.735,849.279 292.215,803.974 292.215,748.171L292.215,392.694C292.215,336.891 340.735,291.586 400.498,291.586L617.064,291.586C676.827,291.586 725.347,336.891 725.347,392.694Z" style="fill:rgb(136,211,227);stroke:black;stroke-width:2.78px;"/>
                </g>
                <path d="M111.035,146.501L379.974,146.501" style="fill:none;stroke:black;stroke-width:1.79px;"/>
                <g transform="matrix(1.78563,0,0,1.78563,-130.279,-62.274)">
                    <g transform="matrix(14,0,0,14,263.283,107.213)">
                    </g>
                    <text x="158.255px" y="107.213px" style="font-family:'Arial-BoldMT', 'Arial';font-weight:700;font-size:14px;">Segmented trial</text>
                </g>
                <g transform="matrix(1.79728,0,0,1.78563,-125.971,-63.1221)">
                    <text x="139.274px" y="136.844px" style="font-family:'ArialMT', 'Arial';font-size:11px;">T<tspan x="145.585px 149.249px " y="136.844px 136.844px ">ri</tspan>al object segmented into</text>
                    <g transform="matrix(11,0,0,11,257.879,148.204)">
                    </g>
                    <text x="139.274px" y="148.204px" style="font-family:'Arial-BoldMT', 'Arial';font-weight:700;font-size:11px;">gait cycles per context</text>
                </g>
            </g>
            <g transform="matrix(0.983009,0,0,1,10.7261,30)">
                <g transform="matrix(0.762964,-0,-0,0.75,-28.6997,-49.9342)">
                    <path d="M865.296,1043.78L865.013,1052.72L858.031,1047.13C860.684,1048.11 864.317,1046.43 865.296,1043.78Z"/>
                    <path d="M312.29,961.252C443.767,851.089 789.048,896.882 862.333,1046.91" style="fill:none;stroke:black;stroke-width:1.33px;"/>
                </g>
            </g>
        </g>
        <g id="normalize" transform="matrix(1,0,0,1,17.486,49.9342)">
            <g id="segmented-norm" transform="matrix(0.979166,0.0266244,-0.02563,1.01173,187.278,592.323)">
                <g transform="matrix(0.76543,-0.0201429,0.0193906,0.740798,-225.582,-628.877)">
                    <path d="M436.97,1096.18L444.97,1100.18L436.97,1104.18C438.97,1102.18 438.97,1098.18 436.97,1096.18Z"/>
                    <path d="M406.237,1100.18L438.57,1100.18" style="fill:none;stroke:black;stroke-width:1.33px;"/>
                </g>
            </g>
            <g id="norm" transform="matrix(1,0,0,1,-0.0130318,596.155)">
                <g transform="matrix(1.35429,0,0,1.21657,-137.09,-38.5373)">
                    <ellipse cx="360.486" cy="178.85" rx="25.844" ry="28.77" style="fill:rgb(243,215,148);stroke:black;stroke-width:0.78px;"/>
                </g>
                <g transform="matrix(1,0,0,1,10.1661,1.35735)">
                    <text x="329.185px" y="170.56px" style="font-family:'Arial-BoldMT', 'Arial';font-weight:700;font-size:11px;">time</text>
                    <text x="314.511px" y="181.56px" style="font-family:'Arial-BoldMT', 'Arial';font-weight:700;font-size:11px;">normalise</text>
                    <g transform="matrix(11,0,0,11,350.581,192.56)">
                    </g>
                    <text x="330.407px" y="192.56px" style="font-family:'Arial-BoldMT', 'Arial';font-weight:700;font-size:11px;">trial</text>
                </g>
            </g>
            <g id="norm-normed" transform="matrix(0.979166,0.0266244,-0.02563,1.01173,286.278,592.323)">
                <g transform="matrix(0.76543,-0.0201429,0.0193906,0.740798,-326.619,-626.218)">
                    <path d="M568.97,1096.18L576.97,1100.18L568.97,1104.18C570.97,1102.18 570.97,1098.18 568.97,1096.18Z"/>
                    <path d="M538.237,1100.18L570.57,1100.18" style="fill:none;stroke:black;stroke-width:1.33px;"/>
                </g>
            </g>
            <g id="detected-events1" serif:id="detected events" transform="matrix(0.560026,0,-1.38778e-17,0.560026,353.811,629.855)">
                <g transform="matrix(0.620915,0,-4.09822e-33,0.664975,-70.4053,-119.808)">
                    <path d="M725.347,392.694L725.347,748.171C725.347,803.974 676.827,849.279 617.064,849.279L400.498,849.279C340.735,849.279 292.215,803.974 292.215,748.171L292.215,392.694C292.215,336.891 340.735,291.586 400.498,291.586L617.064,291.586C676.827,291.586 725.347,336.891 725.347,392.694Z" style="fill:rgb(243,215,148);stroke:black;stroke-width:2.78px;"/>
                </g>
                <path d="M111.035,146.501L379.974,146.501" style="fill:none;stroke:black;stroke-width:1.79px;"/>
                <g transform="matrix(1.78563,0,0,1.78563,-130.279,-62.274)">
                    <g transform="matrix(14,0,0,14,263.676,107.213)">
                    </g>
                    <text x="157.862px" y="107.213px" style="font-family:'Arial-BoldMT', 'Arial';font-weight:700;font-size:14px;">Normalised trial</text>
                </g>
                <g transform="matrix(1.79728,0,0,1.78563,-125.971,-63.1221)">
                    <text x="139.274px" y="136.844px" style="font-family:'ArialMT', 'Arial';font-size:11px;">T<tspan x="145.585px 149.249px " y="136.844px 136.844px ">ri</tspan>al object segmented into</text>
                    <g transform="matrix(11,0,0,11,257.879,148.204)">
                    </g>
                    <text x="139.274px" y="148.204px" style="font-family:'Arial-BoldMT', 'Arial';font-weight:700;font-size:11px;">gait cycles per context</text>
                </g>
            </g>
        </g>
        <g id="export" transform="matrix(1,0,0,1,297.486,49.9342)">
            <g id="norm-export" transform="matrix(0.979166,0.0266244,-0.02563,1.01173,187.278,592.323)">
                <g transform="matrix(0.76543,-0.0201429,0.0193906,0.740798,-511.342,-621.357)">
                    <path d="M810.303,1096.18L818.303,1100.18L810.303,1104.18C812.303,1102.18 812.303,1098.18 810.303,1096.18Z"/>
                    <path d="M779.57,1100.18L811.903,1100.18" style="fill:none;stroke:black;stroke-width:1.33px;"/>
                </g>
            </g>
            <g id="export1" serif:id="export" transform="matrix(1,0,0,1,-0.0130318,596.155)">
                <g transform="matrix(1.35429,0,0,1.21657,-137.09,-38.5373)">
                    <ellipse cx="360.486" cy="178.85" rx="25.844" ry="28.77" style="fill:rgb(201,169,224);stroke:black;stroke-width:0.78px;"/>
                </g>
                <g transform="matrix(1,0,0,1,10.1661,6.77947)">
                    <text x="323.685px" y="170.56px" style="font-family:'Arial-BoldMT', 'Arial';font-weight:700;font-size:11px;">export</text>
                    <g transform="matrix(11,0,0,11,350.581,181.56)">
                    </g>
                    <text x="330.407px" y="181.56px" style="font-family:'Arial-BoldMT', 'Arial';font-weight:700;font-size:11px;">trial</text>
                </g>
            </g>
            <g id="export-hdf5" transform="matrix(0.979166,0.0266244,-0.02563,1.01173,286.278,592.323)">
                <g transform="matrix(0.76543,-0.0201429,0.0193906,0.740798,-612.379,-618.698)">
                    <path d="M942.303,1096.18L950.303,1100.18L942.303,1104.18C944.303,1102.18 944.303,1098.18 942.303,1096.18Z"/>
                    <path d="M911.57,1100.18L943.903,1100.18" style="fill:none;stroke:black;stroke-width:1.33px;"/>
                </g>
            </g>
            <g id="detected-events2" serif:id="detected events" transform="matrix(0.560026,0,-1.38778e-17,0.560026,353.811,629.855)">
                <g transform="matrix(0.620915,0,-4.09822e-33,0.664975,-70.4053,-119.808)">
                    <path d="M725.347,392.694L725.347,748.171C725.347,803.974 676.827,849.279 617.064,849.279L400.498,849.279C340.735,849.279 292.215,803.974 292.215,748.171L292.215,392.694C292.215,336.891 340.735,291.586 400.498,291.586L617.064,291.586C676.827,291.586 725.347,336.891 725.347,392.694Z" style="fill:rgb(201,169,224);stroke:black;stroke-width:2.78px;"/>
                </g>
                <path d="M111.035,146.501L379.974,146.501" style="fill:none;stroke:black;stroke-width:1.79px;"/>
                <g transform="matrix(1.78563,0,0,1.78563,-130.279,-62.274)">
                    <g transform="matrix(14,0,0,14,257.448,107.213)">
                    </g>
                    <text x="164.09px" y="107.213px" style="font-family:'Arial-BoldMT', 'Arial';font-weight:700;font-size:14px;">Exported T<tspan x="236.434px 241.883px " y="107.213px 107.213px ">ri</tspan>al</text>
                </g>
                <g transform="matrix(1.79728,0,0,1.78563,-125.971,-63.1221)">
                    <text x="139.274px" y="136.844px" style="font-family:'Arial-BoldMT', 'Arial';font-weight:700;font-size:11px;">Folder</text>
                    <text x="175.943px" y="136.844px" style="font-family:'ArialMT', 'Arial';font-size:11px;">containing three</text>
                    <text x="139.274px" y="148.204px" style="font-family:'Arial-BoldMT', 'Arial';font-weight:700;font-size:11px;">hdf5</text>
                    <g transform="matrix(11,0,0,11,165.55,148.204)">
                    </g>
                    <g transform="matrix(11,0,0,11,168.606,148.204)">
                    </g>
                    <text x="165.55px" y="148.204px" style="font-family:'ArialMT', 'Arial';font-size:11px;">ﬁles loadable through</text>
                    <text x="139.274px" y="159.564px" style="font-family:'ArialMT', 'Arial';font-size:11px;">the</text>
                    <text x="157.622px" y="159.564px" style="font-family:'Arial-BoldMT', 'Arial';font-weight:700;font-size:11px;">xarray library</text>
                    <text x="227.339px" y="159.564px" style="font-family:'ArialMT', 'Arial';font-size:11px;">:</text>
                    <text x="139.274px" y="182.283px" style="font-family:'ArialMT', 'Arial';font-size:11px;">• <tspan x="157.274px " y="182.283px ">a</tspan>nalysis</text>
                    <text x="139.274px" y="197.643px" style="font-family:'ArialMT', 'Arial';font-size:11px;">• <tspan x="157.274px " y="197.643px ">m</tspan>arkers</text>
                    <g transform="matrix(11,0,0,11,195.807,213.003)">
                    </g>
                    <text x="139.274px" y="213.003px" style="font-family:'ArialMT', 'Arial';font-size:11px;">• <tspan x="157.274px " y="213.003px ">a</tspan>nalogs</text>
                </g>
            </g>
        </g>
        <g id="feature" transform="matrix(1,0,0,1,154.486,319.934)">
            <g id="export2-segment1" serif:id="export2-segment" transform="matrix(-0.0263067,5.44715,-0.999654,-0.143346,252.818,52.4611)">
                <g transform="matrix(-0.01973,-0.74974,0.137591,-0.00362083,-57.6031,408.961)">
                    <path d="M306.145,1444.92L302.145,1452.92L298.145,1444.92C300.145,1446.92 304.145,1446.92 306.145,1444.92Z"/>
                    <path d="M302.145,1237.44L302.145,1446.52" style="fill:none;stroke:black;stroke-width:1.33px;"/>
                </g>
            </g>
            <g id="segment2" serif:id="segment" transform="matrix(1,0,0,1,-278.99,626.146)">
                <g transform="matrix(1.35429,0,0,1.21657,-137.09,-38.5373)">
                    <ellipse cx="360.486" cy="178.85" rx="25.844" ry="28.77" style="fill:rgb(240,158,158);stroke:black;stroke-width:0.78px;"/>
                </g>
                <g transform="matrix(1,0,0,1,10.1661,6.92538)">
                    <text x="316.952px" y="170.56px" style="font-family:'Arial-BoldMT', 'Arial';font-weight:700;font-size:11px;">calculate</text>
                    <g transform="matrix(11,0,0,11,361.892,181.56)">
                    </g>
                    <text x="319.096px" y="181.56px" style="font-family:'Arial-BoldMT', 'Arial';font-weight:700;font-size:11px;">features</text>
                </g>
            </g>
            <g id="segment-segmented1" serif:id="segment-segmented" transform="matrix(0.979166,0.0266244,-0.02563,1.01173,7.27801,622.323)">
                <g transform="matrix(0.76543,-0.0201429,0.0193906,0.740798,-189.453,-926.351)">
                    <path d="M379.636,1496.18L387.636,1500.18L379.636,1504.18C381.636,1502.18 381.636,1498.18 379.636,1496.18Z"/>
                    <path d="M348.904,1500.18L381.236,1500.18" style="fill:none;stroke:black;stroke-width:1.33px;"/>
                </g>
            </g>
            <g id="normalized-trial1" serif:id="normalized trial" transform="matrix(0.560026,0,-1.38778e-17,0.560026,74.4173,659.855)">
                <g transform="matrix(0.620915,0,-4.09822e-33,0.664975,-70.4053,-119.808)">
                    <path d="M725.347,392.694L725.347,748.171C725.347,803.974 676.827,849.279 617.064,849.279L400.498,849.279C340.735,849.279 292.215,803.974 292.215,748.171L292.215,392.694C292.215,336.891 340.735,291.586 400.498,291.586L617.064,291.586C676.827,291.586 725.347,336.891 725.347,392.694Z" style="fill:rgb(240,158,158);stroke:black;stroke-width:2.78px;"/>
                </g>
                <path d="M111.035,146.501L379.974,146.501" style="fill:none;stroke:black;stroke-width:1.79px;"/>
                <g transform="matrix(1.78563,0,0,1.78563,-130.279,-62.274)">
                    <g transform="matrix(14,0,0,14,239.948,107.213)">
                    </g>
                    <text x="181.59px" y="107.213px" style="font-family:'Arial-BoldMT', 'Arial';font-weight:700;font-size:14px;">Features</text>
                </g>
                <g transform="matrix(1.79728,0,0,1.78563,-125.971,-63.1221)">
                    <text x="139.274px" y="136.844px" style="font-family:'Arial-BoldMT', 'Arial';font-weight:700;font-size:11px;">xarray</text>
                    <text x="175.363px" y="136.844px" style="font-family:'ArialMT', 'Arial';font-size:11px;">dataset containing</text>
                    <text x="139.274px" y="148.204px" style="font-family:'Arial-BoldMT', 'Arial';font-weight:700;font-size:11px;">features</text>
                    <text x="185.127px" y="148.204px" style="font-family:'Arial-BoldMT', 'Arial';font-weight:700;font-size:11px;">per contexts and</text>
                    <text x="139.274px" y="159.564px" style="font-family:'Arial-BoldMT', 'Arial';font-weight:700;font-size:11px;">gait cycles</text>
                    <text x="195.531px" y="159.564px" style="font-family:'ArialMT', 'Arial';font-size:11px;">:</text>
                    <text x="139.274px" y="182.283px" style="font-family:'ArialMT', 'Arial';font-size:11px;">• <tspan x="157.274px 163.585px 166.029px " y="182.283px 182.283px 182.283px ">Tim</tspan>e Series</text>
                    <text x="139.274px" y="197.643px" style="font-family:'ArialMT', 'Arial';font-size:11px;">• <tspan x="157.274px " y="197.643px ">P</tspan>hase <tspan x="191.322px 197.633px 200.077px " y="197.643px 197.643px 197.643px ">Tim</tspan>e Series</text>
                    <text x="139.274px" y="213.003px" style="font-family:'ArialMT', 'Arial';font-size:11px;">• <tspan x="157.274px " y="213.003px ">S</tspan>patial</text>
                    <g transform="matrix(11,0,0,11,202.515,228.363)">
                    </g>
                    <text x="139.274px" y="228.363px" style="font-family:'ArialMT', 'Arial';font-size:11px;">• <tspan x="157.274px 162.774px 168.892px " y="228.363px 228.363px 228.363px ">Tem</tspan>poral</text>
                </g>
            </g>
        </g>
        <g transform="matrix(1,0,0,1,-19.6805,-2.83093)">
            <g transform="matrix(24,0,0,24,172.566,46.0026)">
            </g>
            <g transform="matrix(24,0,0,24,179.234,46.0026)">
            </g>
            <g transform="matrix(24,0,0,24,316.613,46.0026)">
            </g>
            <text x="55.203px" y="46.003px" style="font-family:'ArialMT', 'Arial';font-size:24px;">Gaitalytics ﬂow overview</text>
        </g>
    </g>
</svg>
